# xmcd
#
# Track frame offsets: 
#        150
#        16164
#        32883
#        52074
#        81461
#        110171
#        128275
#        147087
#        163118
#        179789
#        199596
#        217606
#        235718
#        252670
#        270004
#        287241
#        308455
#
# Disc length: 4492 seconds
#
# Revision: 0
# Processed by: cddbd v1.5.2PL0 Copyright (c) Steve Scherf et al.
# Submitted via: ExactAudioCopyFreeDBPlugin 1.0
#
DISCID=eb118a11
DTITLE=Haiducii - Dragostea Din Tei
DYEAR=2004
DGENRE=Pop
TTITLE0=Dragostea Din Tei (Original Mix)
TTITLE1=Haiducii vs. Gabry Ponte - Dragostea Din Tei (Radio Version)
TTITLE2=Dragostea Din Tei (DJ Ross 4 The Radio Remix)
TTITLE3=Haiducii vs. Gabry Ponte - Dragostea Din Tei (Extended Version
TTITLE3=)
TTITLE4=Dragostea Din Tei (DJ Ross 4 The Club Remix)
TTITLE5=O-Zone - Fiesta De La Noche
TTITLE6=O-Zone - De Ce Plang Chitarele
TTITLE7=O-Zone - Dragostea Din Tei
TTITLE8=O-Zone - Printe Nori
TTITLE9=O-Zone - Oriunde Al Fi
TTITLE10=O-Zone - Numai Tu
TTITLE11=O-Zone - Dar, Unde Esti
TTITLE12=O-Zone - Despre Tine
TTITLE13=O-Zone - Sarbatoarea Noptilor De Vara
TTITLE14=O-Zone - Nu Ma Las De Limba Nostra
TTITLE15=O-Zone - Crede-Ma
TTITLE16=O-Zone - Dragostea Din Tei (DJ Ross Extended Remix)
EXTD=
EXTT0=
EXTT1=
EXTT2=
EXTT3=
EXTT4=
EXTT5=
EXTT6=
EXTT7=
EXTT8=
EXTT9=
EXTT10=
EXTT11=
EXTT12=
EXTT13=
EXTT14=
EXTT15=
EXTT16=
PLAYORDER=
